<svg width="64" height="65" viewBox="0 0 64 65" fill="none" xmlns="http://www.w3.org/2000/svg">
<path d="M3.7252 62.135C4.8602 63.365 9.5352 61.22 13.2252 59.5C15.9902 58.215 27.0552 53.675 32.5552 51.32C34.0402 50.685 36.2002 49.855 37.7552 47.81C39.1352 45.99 42.7952 38.26 35.4252 30.43C27.9452 22.48 20.2402 24.675 17.3602 26.715C15.6652 27.915 14.2852 30.62 13.6652 31.995C11.0452 37.805 7.3102 48.45 5.7902 52.635C4.6752 55.72 2.6002 60.915 3.7252 62.135Z" fill="#FFC107"/>
<path d="M12.9246 33.7451C12.9946 34.6151 13.1696 36.0301 13.7696 38.7551C14.1796 40.6251 14.8496 42.5851 15.3946 43.8801C17.0296 47.7751 19.3246 49.3451 21.6496 50.6051C25.5996 52.7451 28.2846 53.1451 28.2846 53.1451L25.0646 54.4601C25.0646 54.4601 23.1146 54.0551 20.4546 52.7451C17.9196 51.4951 15.2796 49.3801 13.3496 45.2401C12.5146 43.4451 12.0296 41.7051 11.7496 40.3251C11.4046 38.6151 11.3496 37.6451 11.3496 37.6451L12.9246 33.7451Z" fill="#FF8F00"/>
<path d="M8.96984 43.885C8.96984 43.885 9.36984 47.13 12.0498 51.225C15.1898 56.015 19.5748 56.8 19.5748 56.8L16.6598 58C16.6598 58 13.4048 57.005 10.3098 52.78C8.37984 50.145 7.83984 46.995 7.83984 46.995L8.96984 43.885Z" fill="#FF8F00"/>
<path d="M6.19477 51.5752C6.19477 51.5752 6.92476 54.3752 8.52477 56.4652C10.4298 58.9602 12.8548 59.6852 12.8548 59.6852L10.6198 60.6752C10.6198 60.6752 8.92477 60.3202 7.06977 57.9702C5.65977 56.1852 5.25977 54.1352 5.25977 54.1352L6.19477 51.5752Z" fill="#FF8F00"/>
<path opacity="0.44" d="M4.98015 58.685C4.88015 58.46 4.88015 58.205 4.98515 57.985L17.7201 31.575L19.8151 39.45L6.41515 58.805C6.05515 59.345 5.24515 59.275 4.98015 58.685Z" fill="#FFFDE7"/>
<path d="M20.8248 42.0951C26.7748 49.0551 33.5498 48.1851 35.8048 46.4251C38.0648 44.6601 39.8498 38.5951 33.9248 31.7501C27.7148 24.5801 20.6848 26.6251 19.0598 28.1751C17.4348 29.7251 15.3648 35.7101 20.8248 42.0951Z" fill="url(#paint0_linear_86_753)"/>
<path d="M41.2602 44.9599C39.0902 43.1399 37.9352 43.4649 36.3852 44.1099C34.3852 44.9399 31.2402 45.5549 26.9702 44.1099L28.2552 41.0149C30.7902 41.8699 32.6252 41.4549 34.2102 40.5199C36.2502 39.3199 39.0402 37.6749 43.3802 41.3199C45.1902 42.8399 47.0452 43.8499 48.4052 43.3899C49.3952 43.0599 49.9202 41.5849 50.1852 40.4099C50.2102 40.3049 50.2502 40.0049 50.2802 39.7399C50.5202 37.9049 50.9202 33.9449 53.8702 31.9199C57.0252 29.7549 60.3402 29.7549 60.3402 29.7549L60.9402 35.7149C59.4152 35.4899 58.3552 35.7999 57.4602 36.2949C54.0902 38.1699 57.0252 45.3699 51.7802 47.7899C46.7352 50.1349 42.6102 46.0899 41.2602 44.9599Z" fill="#03A9F4"/>
<path d="M22.7001 37.36L20.5301 35.415C24.5151 30.965 23.4651 27.695 22.7001 25.315C22.5451 24.835 22.4001 24.38 22.3051 23.945C21.9651 22.405 21.8951 21.065 22.0001 19.895C20.4701 17.99 19.7951 15.995 19.7501 15.86C18.8201 13.045 19.5201 10.3 21.1251 7.725C24.3701 2.5 30.2451 2.5 30.2451 2.5L32.2051 7.745C30.7151 7.685 25.8301 7.76 24.3301 10.125C22.4351 13.105 23.6801 14.945 23.7701 15.155C24.1351 14.68 24.5051 14.3 24.8351 14.005C27.2301 11.88 29.3101 11.575 30.6351 11.695C32.1251 11.83 33.4751 12.58 34.4401 13.81C35.4951 15.16 35.9301 16.915 35.5951 18.51C35.2701 20.065 34.2351 21.38 32.6801 22.215C29.9651 23.675 27.7051 23.475 26.1901 22.97C26.2001 23.005 26.2051 23.045 26.2151 23.08C26.2701 23.33 26.3801 23.68 26.5101 24.085C27.3951 26.825 29.0401 31.175 22.7001 37.36ZM26.3751 18.595C26.6651 18.805 26.9701 18.98 27.2851 19.105C28.3351 19.525 29.4801 19.385 30.7801 18.685C31.5451 18.275 31.6351 17.835 31.6651 17.69C31.7551 17.255 31.6051 16.7 31.2801 16.285C30.9951 15.92 30.6651 15.73 30.2701 15.69C29.5201 15.625 28.5051 16.1 27.4901 17.005C27.0051 17.44 26.6351 17.975 26.3751 18.595Z" fill="#F44336"/>
<path d="M31.3848 38.1749L28.2798 38.0899C28.2798 38.0899 29.7548 29.7599 34.5298 28.3599C35.4248 28.0999 36.4048 27.8349 37.3898 27.6899C37.9748 27.5999 38.8998 27.4649 39.3548 27.2949C39.4598 26.5099 39.1298 25.5099 38.7598 24.3749C38.4698 23.4949 38.1698 22.5899 38.0098 21.5999C37.6998 19.6699 38.2148 17.9649 39.4598 16.7899C40.9798 15.3649 43.4348 14.9099 46.2048 15.5399C47.7848 15.8999 48.9498 16.6749 49.9748 17.3549C51.4398 18.3299 52.2948 18.8249 54.0848 17.6199C56.2498 16.1599 53.4198 10.4449 51.9148 7.14493L57.5298 4.80493C58.2848 6.45493 61.9298 14.9449 59.5248 19.7899C58.7148 21.4199 57.3198 22.4999 55.4898 22.9049C51.5098 23.7949 49.1798 22.2449 47.4798 21.1149C46.6748 20.5799 45.9698 20.1599 45.2048 19.9399C39.8898 18.4249 47.3098 26.2449 43.8348 29.7599C41.7498 31.8649 36.6548 32.4199 36.3248 32.4999C33.0448 33.2899 31.3848 38.1749 31.3848 38.1749Z" fill="#F48FB1"/>
<path d="M21.9949 19.895C21.8999 20.995 21.8549 21.65 22.1399 23.08C23.5149 24.09 26.5099 24.09 26.5099 24.09C26.3799 23.685 26.2649 23.335 26.2149 23.085C26.2049 23.05 26.1999 23.01 26.1899 22.975C23.1449 21.455 21.9949 19.895 21.9949 19.895Z" fill="#C92B27"/>
<path d="M15.7652 24.8199L10.5952 22.2849L13.1702 18.5649L17.2252 21.2499L15.7652 24.8199Z" fill="#FFC107"/>
<path d="M8.14502 17.8C5.50502 17.445 2.81502 15.205 2.52002 14.95L5.11502 11.905C5.90002 12.57 7.56502 13.685 8.68002 13.835L8.14502 17.8Z" fill="#FB8C00"/>
<path d="M12.8049 11.135L9.00488 9.88998C9.43988 8.55998 9.55488 7.12498 9.32988 5.73998L13.2799 5.10498C13.6049 7.11498 13.4399 9.19998 12.8049 11.135Z" fill="#03A9F4"/>
<path d="M36.5366 8.16235L40.4442 7.30755L41.5726 12.4656L37.665 13.3204L36.5366 8.16235Z" fill="#FB8C00"/>
<path d="M46.23 9.38506L43.48 6.48006C44.92 5.11506 45.25 3.33006 45.25 3.31006L49.2 3.95506C49.15 4.27006 48.645 7.10006 46.23 9.38506Z" fill="#FFC107"/>
<path d="M47.7583 24.7905L51.2518 23.6987L52.445 27.5167L48.9515 28.6085L47.7583 24.7905Z" fill="#FB8C00"/>
<path d="M48.775 57.0151L44.8 56.5451C44.97 55.1301 43.915 53.3951 43.625 53.0101L46.825 50.6101C47.065 50.9251 49.15 53.8101 48.775 57.0151Z" fill="#F44336"/>
<path d="M60.1851 51.9451C58.6901 51.7201 57.1601 51.6301 55.6501 51.6851L55.5151 47.6851C57.2701 47.6251 59.0451 47.7251 60.7801 47.9901L60.1851 51.9451Z" fill="#FB8C00"/>
<path d="M54.8066 57.4509L57.617 54.6045L61.4846 58.4232L58.6742 61.2696L54.8066 57.4509Z" fill="#F48FB1"/>
<path d="M46.5493 32.1655L49.4393 35.4699L46.1349 38.3598L43.245 35.0555L46.5493 32.1655Z" fill="#F44336"/>
<defs>
<linearGradient id="paint0_linear_86_753" x1="37.1919" y1="31.4193" x2="22.3083" y2="40.3495" gradientUnits="userSpaceOnUse">
<stop offset="0.0235" stop-color="#8F4700"/>
<stop offset="1" stop-color="#703E2D"/>
</linearGradient>
</defs>
</svg>
